<?xml version="1.0" encoding="UTF-8" standalone="no"?><!DOCTYPE svg PUBLIC "-//W3C//DTD SVG 1.1//EN" "http://www.w3.org/Graphics/SVG/1.1/DTD/svg11.dtd"><svg width="100%" height="100%" viewBox="0 0 1317 309" version="1.1" xmlns="http://www.w3.org/2000/svg" xmlns:xlink="http://www.w3.org/1999/xlink" xml:space="preserve" xmlns:serif="http://www.serif.com/" style="fill-rule:evenodd;clip-rule:evenodd;stroke-linejoin:round;stroke-miterlimit:2;"><g id="Background"><path d="M426.163,262.593c-31.162,-4.456 -50.326,-17.487 -54.147,-20.085c-67.631,-45.987 -53.734,-124.699 -41.138,-149.477c13.254,-26.075 26.678,-40.079 51.557,-54.241c24.031,-13.68 58.708,-17.271 85.312,-13.004c18.686,2.997 34.697,8.583 53.624,21.807c19.842,13.863 37.002,38.519 43.317,62.037c16.091,59.925 -11.512,126.032 -76.322,147.136c-4.97,1.618 -7.209,2.672 -3.799,6.624c11.258,13.048 34.387,8.924 39.883,14.227c6.784,6.547 -2.88,17.553 -23.445,18.67c-31.604,1.718 -48.701,-16.193 -53.679,-20.741c-11.14,-10.176 -10.694,-11.849 -21.162,-12.954Z" class="inqbeta-logo__mark" style="fill:#d16900;"/><path d="M610.354,130.208c0.155,-4.654 0.139,-4.65 0.139,-100c0,-9.54 -2.35,-13.921 7.216,-13.618c18.999,0.602 22.473,-1.083 23.664,2.964c0.363,1.235 0.317,79.976 0.029,83.552c-0.259,3.218 -1.506,4.112 1.418,5.437c1.849,0.838 1.6,-0.414 5.344,-4.21c27.953,-28.346 85.056,-27.595 116.128,4.312c27.092,27.82 24.079,63.41 23.727,69.45c-3.177,54.458 -44.564,71.733 -51.736,74.587c-21.724,8.644 -50.674,7.562 -68.205,-0.379c-17.578,-7.962 -23.392,-17.393 -23.592,-17.596c-2.316,-2.355 -3.948,-0.807 -4.194,-0.574c-0.518,0.492 0.111,3.325 0.046,16.905c-0.03,6.198 -1.915,6.044 -8.046,6.046c-19.196,0.006 -21.141,0.855 -21.921,-4.028c-0.018,-0.113 -0.016,-0.098 -0.016,-122.849Z" class="inqbeta-logo__wordmark" style="fill:#434343;"/><path d="M816.577,157.425c1.758,-8.705 1.543,-8.718 4.28,-17.13c9.266,-28.478 38.166,-60.972 92.666,-55.739c39.456,3.789 68.024,35.632 72.291,72.834c2.363,20.596 0.641,22.274 -0.955,23.533c-1.104,0.87 -1.289,0.774 -115.068,0.774c-19.254,-0 -23.357,-1.007 -22.275,4.676c5.623,29.515 34.801,46.631 61.842,45.391c19.949,-0.915 31.915,-5.205 45.205,-16.928c4.75,-4.19 6.567,-1.078 14.171,8.267c3.645,4.479 7.799,7.091 3.575,11.646c-27.057,29.18 -85.766,31.849 -119.647,8.663c-42.562,-29.126 -36.935,-74.03 -36.086,-85.986Z" class="inqbeta-logo__wordmark" style="fill:#434343;"/><path d="M1263.223,237.482c-0.478,0.141 -0.931,-0.636 -1.409,-0.496c-0.534,0.157 -0.909,2.962 -7.999,8.693c-25.777,20.837 -79.935,15.42 -96.584,-4.997c-1.169,-1.434 -17.899,-16.532 -10.815,-46.023c0.219,-0.914 3.641,-9.578 5.194,-12.013c17.636,-27.652 57.685,-24.443 95.265,-24.443c11.337,0 16.014,1.158 15.948,-5.087c-0.61,-56.971 -67.795,-46.22 -95.383,-27.495c-6.324,4.292 -6.726,0.331 -11.709,-8.203c-3.373,-5.777 -6.823,-10.853 -3.822,-13.365c4.022,-3.368 20.529,-12.686 34.481,-15.833c7.868,-1.775 42.814,-10.102 72.752,2.943c1.372,0.598 14.045,5.665 23.979,19.733c12.685,17.964 10.942,40.339 10.942,106.811c0,36.957 0.304,37.655 -1.804,38.791c-1.583,0.853 -1.826,0.984 -22.463,0.585c-6.628,-0.128 -5.387,-3.867 -5.184,-12.287c0.012,-0.488 0.027,-1.127 0.304,-6.09c-0.564,-0.408 -1.128,-0.816 -1.692,-1.224Z" class="inqbeta-logo__wordmark" style="fill:#434343;"/><path d="M429.888,174.757c2.546,2.709 2.297,4.273 4.413,11.725c0.815,2.87 7.472,26.313 1.721,37.251c-0.956,1.818 -2.329,4.554 -20.533,-1.472c-0.815,-0.27 -13.738,-5.199 -22.142,-11.58c-28.98,-22.002 -31.513,-52.303 -31.952,-57.55c-0.078,-0.927 -8.187,-48.487 35.665,-78.894c0.348,-0.241 11.743,-7.164 20.92,-9.778c28.322,-8.066 67.078,-4.959 92.767,26.742c34.346,42.385 18.939,114.932 -41.047,132.448c-5.304,1.549 -7.211,1.557 -7.482,-3.925c-0.582,-11.78 2.251,-11.379 9.447,-14.948c17.452,-8.656 28.344,-17.916 37.214,-47.646c2.541,-8.515 7.319,-17.928 -1.583,-16.472c-14.762,2.414 -37.826,8.588 -50.638,32.941c-0.656,1.247 -2.926,8.424 -3.536,8.687c-1.715,0.741 -1.739,0.062 -2.766,-1.538c-1.672,-2.606 3.15,-10.372 -7.227,-29.937c-6.942,-13.089 -19.311,-19.211 -21.425,-20.257c-22.166,-10.971 -35.922,-6.111 -37.16,-2.367c-0.878,2.654 1.65,46.232 31.317,66.244c12.793,8.629 10.856,-5.624 10.961,-7.9c0.058,-1.257 0.926,-10.121 1.235,-10.549c0.431,-0.595 1.4,-0.632 1.831,-1.227Z" style="fill:#fefefe;"/><path d="M149.91,155.301c-1.202,14.522 -1.454,14.48 -1.454,29.074c0,69.946 0.129,70.212 -0.96,71.362c-1.286,1.358 -1.538,1.411 -21.454,1.348c-0.565,-0.002 -5.898,-0.019 -6.988,-1.012c-1.696,-1.545 -1.465,-1.948 -1.465,-40.447c-0,-126.052 -0.028,-126.06 0.221,-127.055c0.808,-3.223 1.988,-3.073 22.825,-2.962c7.855,0.042 6.653,3.219 6.569,13.349c-0.037,4.429 -1.344,10.077 1.7,9.977c1.811,-0.059 2.31,-2.929 7.008,-7.09c26.307,-23.303 75.886,-24.055 101.107,-2.559c26.939,22.96 23.726,51.542 23.726,110.089c0,45.241 0.214,45.715 -1.391,46.9c-1.897,1.401 -26.534,0.974 -27.949,0.294c-2.304,-1.108 -1.97,-1.91 -1.97,-38.861c-0,-68.759 1.633,-76.58 -11.838,-92.916c-0.293,-0.355 -6.764,-6.888 -15.457,-9.908c-26.463,-9.191 -55.312,1.921 -64.971,19.416c-6.882,12.467 -6.363,16.644 -7.259,21Z" class="inqbeta-logo__wordmark" style="fill:#434343;"/><path d="M684.183,112.761c1.397,-0.257 23.028,-6.497 44.491,6.078c0.865,0.507 16.296,7.969 23.979,28.209c3.302,8.697 3.943,23.329 3.928,24.818c-0.616,59.523 -62.197,72.987 -93.256,48.207c-19.6,-15.638 -21.141,-34.718 -21.983,-46.176c-0.403,-5.481 1.597,-19.268 1.956,-20.622c9.012,-33.968 39.953,-40.234 40.884,-40.513Z" style="fill:#fefefe;"/><path d="M1094.743,258.562c-1.087,0.032 -15.53,1.333 -29.117,-3.356c-34.417,-11.876 -31.148,-50.507 -31.148,-62.498c-0,-78.801 0.136,-79.065 -0.996,-80.401c-2.63,-3.105 -23.941,0.282 -26.743,-2.289c-1.145,-1.051 -2.103,-1.93 -1.369,-19.385c0.269,-6.39 3.276,-4.929 22.747,-5.03c7.72,-0.04 6.361,-3.726 6.36,-17.895c-0,-16.445 -0.852,-18.791 3.865,-19.729c1.487,-0.296 1.48,-0.239 18.95,-0.207c0.631,0.001 6.567,0.012 7.728,1.588c2.547,3.456 -1.235,33.453 2.439,35.343c2.236,1.15 2.382,0.875 37.748,0.903c6.7,0.005 9.366,-1.62 9.818,5.045c0.006,0.09 0.007,14.374 0.005,14.551c-0.058,7.147 -3.131,5.78 -13.991,5.777c-32.298,-0.006 -32.411,-0.082 -33.287,0.567c-2.185,1.62 -1.87,2.205 -1.87,37.412c-0,60.537 -1.332,69.783 8.813,78.287c7.702,6.456 25.373,8.298 38.549,0.216c4.371,-2.681 5.189,0.92 10.405,13.295c1.594,3.781 5.434,8.553 -12.168,14.526c-6.907,2.344 -15.383,3.151 -16.741,3.281Z" class="inqbeta-logo__wordmark" style="fill:#434343;"/><path d="M58.177,121.875c-0,132.151 0.068,132.223 -0.538,133.538c-0.733,1.593 -4.135,1.66 -4.521,1.668c-23.925,0.478 -24.423,0.183 -25.33,-1.634c-0.965,-1.933 -0.857,-2.06 -0.857,-133.572c-0,-33.273 -0.231,-33.619 1.356,-35.244c1.708,-1.749 5.875,-0.761 22.752,-1.229c8.621,-0.239 7.132,4.028 7.138,9.389c-0,9.028 -0,18.056 -0,27.084Z" class="inqbeta-logo__wordmark" style="fill:#434343;"/><path d="M909.464,110.624c24.851,3.598 32.871,16.116 39.859,25.584c3.691,5.002 10.578,21.674 3.757,22.948c-1.089,0.203 -101.605,0.107 -102.013,0.053c-6.819,-0.906 -1.666,-11.423 0.204,-16.412c7.858,-20.963 29.308,-32.601 49.786,-32.573c6.717,0.009 7.296,0.311 8.407,0.4Z" style="fill:#fefefe;"/><path d="M1262.207,205.437c-15.351,38.499 -70.352,34.502 -82.16,16.553c-9.896,-15.043 -3.873,-37.48 20.913,-40.259c4.479,-0.502 15.137,-1.697 56.323,-0.985c6.596,0.114 5.624,2.976 5.574,18.21c-0.017,5.217 -0.461,5.159 -0.65,6.481Z" style="fill:#fdfdfd;"/><path d="M22.424,36.354c-3.467,-31.082 36.706,-30.654 40.567,-8.127c3.406,19.87 -19.495,30.167 -33.42,19.514c-6.654,-5.091 -7.02,-10.958 -7.147,-11.386Z" class="inqbeta-logo__wordmark" style="fill:#434343;"/></g></svg>