<?xml version="1.0" encoding="UTF-8" standalone="no"?><!DOCTYPE svg PUBLIC "-//W3C//DTD SVG 1.1//EN" "http://www.w3.org/Graphics/SVG/1.1/DTD/svg11.dtd"><svg width="100%" height="100%" viewBox="0 0 1317 309" version="1.1" xmlns="http://www.w3.org/2000/svg" xmlns:xlink="http://www.w3.org/1999/xlink" xml:space="preserve" xmlns:serif="http://www.serif.com/" style="fill-rule:evenodd;clip-rule:evenodd;stroke-linejoin:round;stroke-miterlimit:2;"><g id="Background"><path d="M568.661,138.541c-0.003,12.057 0.455,19.784 -1.228,27.006c-2.52,10.812 -1.189,11.136 -2.714,14.253c-0.132,0.271 -0.528,0.351 -0.654,0.624c-2.24,4.847 -4.68,13.077 -5.024,14.235c-0.178,0.601 -0.279,1.236 -0.567,1.792c-0.145,0.281 -0.554,0.362 -0.695,0.645c-0.556,1.12 -0.802,2.377 -1.361,3.495c-0.151,0.302 -0.563,0.406 -0.735,0.696c-0.317,0.532 -0.371,1.196 -0.703,1.718c-0.191,0.301 -0.695,0.35 -0.822,0.683c-0.127,0.332 0.285,0.721 0.16,1.053c-0.123,0.328 -0.619,0.378 -0.808,0.674c-0.328,0.514 -0.356,1.185 -0.699,1.689c-0.223,0.328 -0.706,0.406 -0.943,0.724c-1.06,1.425 -0.562,1.674 -1.61,3.135c-0.223,0.31 -0.625,0.465 -0.837,0.783c-0.328,0.493 -0.402,1.133 -0.753,1.61c-0.246,0.335 -0.732,0.431 -0.988,0.758c-0.353,0.45 -0.443,1.07 -0.799,1.518c-0.276,0.347 -0.782,0.462 -1.052,0.814c-0.68,0.885 -1.111,1.941 -1.761,2.849c-0.236,0.329 -0.646,0.507 -0.878,0.84c-0.328,0.471 -0.411,1.093 -0.776,1.536c-0.287,0.348 -0.826,0.418 -1.117,0.762c-0.353,0.417 -0.393,1.046 -0.757,1.453c-0.323,0.361 -0.898,0.42 -1.232,0.771c-0.362,0.38 -0.436,0.978 -0.798,1.358c-0.345,0.361 -0.941,0.423 -1.265,0.803c-0.656,0.767 -0.955,1.798 -1.614,2.562c-0.33,0.383 -0.93,0.443 -1.288,0.8c-0.356,0.355 -0.439,0.928 -0.796,1.281c-0.36,0.356 -0.94,0.432 -1.298,0.79c-0.354,0.354 -0.418,0.937 -0.779,1.285c-0.369,0.356 -0.969,0.403 -1.339,0.758c-0.342,0.329 -0.363,0.92 -0.726,1.226c-0.275,0.232 -0.572,-0.279 -3.87,2.281c-0.45,0.349 -1.023,0.523 -1.457,0.892c-0.355,0.302 -0.523,0.783 -0.873,1.09c-0.396,0.346 -0.95,0.482 -1.336,0.84c-0.334,0.311 -0.395,0.879 -0.779,1.127c-0.96,0.619 -2.136,0.832 -3.129,1.396c-0.312,0.177 -0.426,0.6 -0.729,0.793c-1.99,1.264 -2.159,0.905 -4.125,2.233c-3.38,2.285 -3.554,2.359 -3.895,2.504c-0.567,0.242 -1.19,0.373 -1.714,0.697c-0.29,0.179 -0.344,0.663 -0.665,0.776c-0.349,0.123 -0.752,-0.282 -1.099,-0.154c-0.323,0.119 -0.358,0.621 -0.652,0.8c-0.534,0.326 -1.215,0.35 -1.753,0.669c-0.287,0.17 -0.337,0.652 -0.653,0.758c-0.366,0.124 -0.784,-0.272 -1.151,-0.149c-0.306,0.103 -0.334,0.592 -0.618,0.744c-0.464,0.248 -0.601,-0.128 -6.18,2.248c-0.589,0.251 -1.241,0.351 -1.803,0.657c-0.27,0.147 -0.361,0.53 -0.634,0.669c-2.563,1.308 -2.871,0.334 -5.484,1.573c-2.055,0.975 -2.305,1.154 -2.074,3.428c0.055,0.545 0.086,1.186 0.472,1.574c0.224,0.226 1.686,0.285 3.323,2.673c1.103,1.609 1.367,1.3 3.824,2.76c3.08,1.829 10.754,3.279 12.763,3.775c10.728,2.65 21.484,1.415 21.551,10.11c0.027,3.562 -0.684,3.376 -2.667,6.298c-0.765,1.127 -0.932,0.913 -3.895,2.613c-0.295,0.169 -0.448,0.534 -0.75,0.69c-8.134,4.22 -12.239,3.499 -13.917,3.904c-2.546,0.614 -2.45,1.485 -12.732,1.177c-4.814,-0.144 -18.891,-3.32 -22.521,-5.104c-0.271,-0.133 -0.42,-0.454 -0.691,-0.586c-2.115,-1.031 -2.098,-0.958 -4.215,-2.05c-1.092,-0.563 -2.285,-0.918 -3.361,-1.511c-0.313,-0.172 -0.458,-0.564 -0.759,-0.757c-0.502,-0.322 -1.132,-0.418 -1.616,-0.767c-0.331,-0.239 -0.444,-0.708 -0.769,-0.956c-1.409,-1.07 -1.651,-0.609 -3.072,-1.638c-0.312,-0.226 -0.471,-0.627 -0.791,-0.842c-0.488,-0.328 -1.126,-0.398 -1.591,-0.758c-0.347,-0.269 -0.432,-0.788 -0.77,-1.07c-0.423,-0.352 -1.043,-0.417 -1.454,-0.783c-0.36,-0.322 -0.437,-0.883 -0.787,-1.216c-0.38,-0.361 -0.963,-0.454 -1.346,-0.812c-0.354,-0.33 -0.463,-0.868 -0.813,-1.203c-0.374,-0.359 -0.935,-0.48 -1.313,-0.835c-0.352,-0.331 -0.487,-0.85 -0.836,-1.185c-0.372,-0.357 -0.914,-0.502 -1.289,-0.855c-1.082,-1.02 -0.905,-1.164 -2.126,-2.039c-4.486,-3.213 -4.226,-6.443 -14.486,-8.326c-2.899,-0.532 -3.795,-1.164 -8.367,-1.817c-3.24,-0.463 -13.811,-2.905 -20.466,-5.363c-7.792,-2.877 -10.519,-3.688 -10.579,-3.72c-0.288,-0.154 -0.278,-0.683 -0.589,-0.782c-0.385,-0.122 -0.807,0.343 -1.191,0.219c-0.325,-0.105 -0.337,-0.631 -0.629,-0.808c-0.535,-0.325 -1.233,-0.311 -1.763,-0.643c-0.301,-0.189 -0.297,-0.741 -0.633,-0.86c-0.363,-0.128 -0.766,0.363 -1.13,0.239c-0.333,-0.114 -0.338,-0.654 -0.635,-0.843c-0.521,-0.331 -1.21,-0.327 -1.73,-0.66c-0.316,-0.203 -0.344,-0.745 -0.69,-0.892c-0.272,-0.116 -0.586,0.356 -0.855,0.233c-0.385,-0.176 -0.464,-0.728 -0.798,-0.988c-0.596,-0.465 -2.172,-1.459 -2.364,-1.58c-0.507,-0.32 -1.12,-0.456 -1.614,-0.796c-1.22,-0.84 -1.069,-0.982 -2.336,-1.717c-1.552,-0.9 -1.374,-1.068 -2.316,-1.704c-0.482,-0.326 -1.087,-0.451 -1.547,-0.807c-0.34,-0.262 -0.47,-0.737 -0.804,-1.007c-0.433,-0.35 -1.028,-0.464 -1.455,-0.821c-0.346,-0.289 -0.46,-0.803 -0.818,-1.079c-0.881,-0.679 -1.937,-1.102 -2.846,-1.744c-0.327,-0.231 -0.51,-0.63 -0.839,-0.857c-0.472,-0.327 -1.092,-0.416 -1.533,-0.784c-0.354,-0.296 -0.426,-0.845 -0.775,-1.147c-0.404,-0.35 -1.03,-0.383 -1.417,-0.752c-0.364,-0.347 -0.388,-0.958 -0.747,-1.31c-0.368,-0.362 -0.984,-0.392 -1.353,-0.753c-0.36,-0.352 -0.398,-0.954 -0.756,-1.309c-0.365,-0.361 -0.971,-0.405 -1.338,-0.764c-0.36,-0.353 -0.382,-0.978 -0.768,-1.301c-0.779,-0.651 -1.857,-0.878 -2.629,-1.537c-0.39,-0.333 -0.392,-0.974 -0.747,-1.344c-0.33,-0.344 -0.928,-0.356 -1.236,-0.719c-0.233,-0.274 0.304,-0.57 -2.288,-3.868c-0.35,-0.445 -0.534,-1.008 -0.902,-1.438c-0.303,-0.355 -0.774,-0.539 -1.084,-0.888c-0.347,-0.391 -0.508,-0.925 -0.863,-1.308c-0.309,-0.334 -0.845,-0.434 -1.098,-0.812c-0.631,-0.941 -0.918,-2.078 -1.494,-3.054c-0.19,-0.322 -0.57,-0.495 -0.784,-0.802c-0.336,-0.481 -0.487,-1.082 -0.853,-1.542c-0.27,-0.339 -0.788,-0.442 -1.017,-0.81c-0.612,-0.982 -0.881,-2.145 -1.452,-3.151c-0.173,-0.305 -0.588,-0.424 -0.753,-0.733c-0.581,-1.088 -0.896,-2.303 -1.456,-3.402c-0.152,-0.298 -4.491,-7.63 -5.925,-12.717c-0.474,-1.682 -3.59,-10.197 -4.057,-12.551c-1.804,-9.103 -2.565,-8.995 -2.752,-18.758c-0.102,-5.329 -0.057,-5.296 -0.876,-10.521c-1.232,-7.863 0.384,-7.842 1.142,-20.792c0.109,-1.864 0.54,-9.224 4.91,-22.816c0.207,-0.644 2.171,-6.752 2.797,-7.985c0.14,-0.275 0.507,-0.388 0.643,-0.665c0.554,-1.119 0.844,-2.357 1.403,-3.474c0.151,-0.301 0.53,-0.436 0.701,-0.725c0.957,-1.615 0.438,-1.823 1.417,-3.413c0.185,-0.3 0.61,-0.393 0.799,-0.69c0.326,-0.513 0.367,-1.178 0.707,-1.682c0.217,-0.321 0.758,-0.365 0.914,-0.72c0.114,-0.258 -0.36,-0.557 -0.239,-0.812c0.184,-0.387 0.742,-0.463 1.005,-0.8c1.253,-1.603 2.169,-3.684 2.318,-4.024c0.246,-0.56 0.395,-1.17 0.719,-1.69c0.189,-0.304 0.592,-0.43 0.787,-0.73c0.324,-0.498 0.384,-1.148 0.743,-1.622c0.262,-0.345 0.783,-0.42 1.058,-0.754c0.354,-0.431 0.416,-1.057 0.778,-1.481c0.301,-0.354 0.839,-0.442 1.151,-0.785c0.363,-0.399 0.476,-0.982 0.829,-1.389c0.3,-0.346 0.812,-0.47 1.095,-0.83c0.681,-0.866 1.115,-1.905 1.758,-2.8c0.234,-0.325 0.632,-0.51 0.86,-0.839c0.327,-0.474 0.421,-1.093 0.783,-1.541c0.281,-0.348 0.804,-0.438 1.093,-0.78c0.351,-0.416 0.41,-1.035 0.779,-1.435c0.34,-0.368 0.956,-0.405 1.277,-0.79c0.647,-0.776 0.891,-1.84 1.554,-2.602c0.338,-0.389 0.983,-0.387 1.355,-0.744c0.346,-0.332 0.352,-0.935 0.716,-1.247c0.273,-0.235 0.607,0.323 3.858,-2.322c3.132,-2.548 3.121,-2.512 3.543,-2.917c0.345,-0.331 0.536,-0.803 0.89,-1.124c0.383,-0.347 0.915,-0.502 1.294,-0.853c0.331,-0.307 0.425,-0.845 0.804,-1.092c0.955,-0.622 2.112,-0.874 3.096,-1.448c0.325,-0.189 0.475,-0.596 0.783,-0.813c0.481,-0.339 1.098,-0.466 1.556,-0.835c0.342,-0.276 0.416,-0.823 0.789,-1.056c0.976,-0.612 2.155,-0.839 3.153,-1.415c0.328,-0.189 0.453,-0.623 0.762,-0.842c0.482,-0.342 1.116,-0.442 1.574,-0.816c0.345,-0.282 0.383,-0.864 0.763,-1.095c0.992,-0.605 2.205,-0.769 3.22,-1.334c0.308,-0.171 0.328,-0.707 0.66,-0.826c0.35,-0.126 0.749,0.319 1.099,0.192c0.33,-0.12 0.353,-0.642 0.652,-0.827c0.533,-0.328 1.221,-0.337 1.758,-0.659c0.289,-0.173 0.325,-0.672 0.644,-0.78c0.366,-0.124 0.78,0.298 1.146,0.175c0.313,-0.105 0.336,-0.609 0.625,-0.769c0.46,-0.254 0.549,0.102 6.157,-2.29c3.068,-1.308 2.906,-1.674 6.166,-2.351c3.236,-0.671 3.207,-0.663 6.383,-1.608c1.58,-0.47 7.686,-1.221 7.989,-1.301c4.621,-1.224 4.543,-1.58 8.519,-1.82c6.04,-0.365 19.108,-2.8 31.312,-1.341c6.284,0.751 6.22,1.032 12.557,1.417c8.899,0.542 27.883,7.282 28.729,7.705c2.132,1.065 2.104,1.027 4.222,2.024c2.137,1.005 2.223,0.706 4.351,1.658c0.303,0.135 0.306,0.673 0.621,0.777c0.369,0.122 0.781,-0.32 1.149,-0.194c0.326,0.112 0.355,0.623 0.646,0.808c0.517,0.329 1.197,0.344 1.704,0.686c0.327,0.221 0.395,0.711 0.712,0.945c1.439,1.064 1.668,0.566 3.166,1.598c6.032,4.158 6.012,4.162 7.098,4.869c3.437,2.241 3.255,2.411 8.156,6.63c0.175,0.151 1.406,1.21 2.252,1.805c0.467,0.328 1.082,0.421 1.519,0.786c0.349,0.292 0.424,0.831 0.77,1.127c0.412,0.352 1.038,0.391 1.437,0.758c0.366,0.337 0.394,0.955 0.773,1.276c0.359,0.305 1.881,0.309 3.213,2.99c0.267,0.537 1.266,2.547 4.535,5.968c0.332,0.347 0.82,0.522 1.145,0.876c0.348,0.379 0.487,0.922 0.847,1.29c0.342,0.349 0.885,0.459 1.218,0.818c0.351,0.38 0.423,0.967 0.781,1.341c0.325,0.34 0.947,0.341 1.206,0.734c0.627,0.95 0.793,2.144 1.35,3.136c0.176,0.313 0.62,0.405 0.81,0.709c0.978,1.563 0.475,1.77 1.447,3.372c0.186,0.307 0.541,0.483 0.74,0.782c0.33,0.494 0.466,1.11 0.835,1.576c0.269,0.34 0.814,0.413 1.036,0.785c0.596,1.001 0.784,2.206 1.352,3.224c0.173,0.311 0.695,0.346 0.824,0.678c0.125,0.322 -0.29,0.701 -0.164,1.022c0.132,0.339 0.64,0.396 0.838,0.703c0.334,0.52 0.401,1.179 0.715,1.712c0.167,0.283 0.545,0.405 0.702,0.694c0.321,0.594 -0.168,0.773 2.863,7.94c1.303,3.081 1.543,2.943 2.418,6.134c1.151,4.197 1.792,4.011 2.269,8.358c0.578,5.277 0.935,5.186 1.867,10.431c0.67,3.775 0.742,13.446 0.75,14.616Zm-118.946,35.393c-0.007,-0.117 0.131,-3.77 -1.132,-8.209c-3.813,-13.401 -8.467,-18.663 -9.949,-21.002c-3.382,-5.34 -12.736,-11.98 -18.804,-14.603c-10.026,-4.333 -15.413,-5.034 -16.81,-5.216c-18.485,-2.406 -18.322,4.835 -17.875,9.402c2.517,25.764 13.364,41.294 13.671,41.828c0.2,0.347 7.004,9.675 9.243,11.558c10.38,8.728 12.514,8.724 13.822,8.721c8.66,-0.016 1.766,-21.393 8.378,-20.609c2.894,0.343 4.845,14.636 6.44,21.005c0.366,1.461 2.112,8.429 1.359,18.774c-0.663,9.111 -3.81,11.76 -14.315,9.17c-15.161,-3.738 -23.316,-9.863 -29.056,-13.133c-3.755,-2.139 -15.243,-13.278 -18.835,-18.782c-1.484,-2.274 -7.322,-10.838 -9.823,-19.008c-3.419,-11.165 -3.47,-11.151 -5.025,-22.732c-2.463,-18.349 4.277,-47.215 22.666,-65.359c9.757,-9.627 15.932,-13.936 28.205,-19.088c14.15,-5.941 34.363,-7.092 43.383,-5.472c8.833,1.587 15.22,1.663 30.807,9.414c4.264,2.12 8.051,5.199 8.633,5.573c7.584,4.871 18.537,16.176 24.321,27.36c19.742,38.173 6.839,77.115 -12.018,97.247c-1.941,2.073 -13.128,14.016 -29.193,20.194c-13.652,5.25 -15.283,2.5 -15.58,-1.254c-1.321,-16.709 9.75,-10.896 27.721,-27.735c5.977,-5.6 11.726,-16.341 13.146,-20.119c4.268,-11.359 10.366,-26.358 8.248,-29.085c-1.657,-2.132 -4.119,-1.768 -10.402,-0.583c-3.745,0.706 -18.126,5.228 -25.215,10.464c-4.493,3.319 -10.204,6.578 -17.876,19.538c-1.59,2.685 -3.939,12.248 -7.289,8.553c-1.363,-1.503 -0.719,-1.769 -0.846,-6.816Z" class="inqbeta-logo__mark" style="fill:#d16900;fill-opacity:0.99;"/><path d="M610.488,73.958c0.024,-49.828 0.034,-49.803 0.037,-50.021c0.033,-2.262 -1.544,-8.62 13.37,-7.507c11.619,0.868 14.133,-0.148 16.163,1.852c1.684,1.66 1.393,2.072 1.411,53.593c0.012,33.144 -0.112,33.222 0.31,33.93c2.22,3.721 3.371,1.665 6.442,-1.38c12.145,-12.044 25.609,-16.443 38.419,-19.296c2.003,-0.446 14.894,-1.668 20.687,-1.187c20.154,1.671 31.021,7.154 33.487,8.398c4.854,2.449 13.134,6.073 23.412,16.351c1.615,1.615 10.311,10.311 16.173,23.517c4.26,9.597 5.74,17.284 6.039,18.838c3.988,20.714 0.28,42.186 -2.509,49.834c-3.519,9.651 -2.784,10.007 -8.327,18.66c-2.367,3.695 -2.242,3.735 -4.997,7.184c-2.639,3.303 -5.801,9.08 -21.851,19.842c-8.452,5.667 -25.474,10.671 -33.087,11.272c-11.105,0.878 -16.346,1.261 -29.23,-0.348c-7.422,-0.927 -20.064,-5.65 -22.545,-7.105c-10.927,-6.405 -10.622,-6.825 -11.117,-7.231c-4.09,-3.359 -3.889,-3.516 -7.601,-7.267c-0.232,-0.235 -2.354,-2.378 -4.023,-0.925c-1.469,1.278 -0.249,10.295 -0.728,16.063c-0.039,0.465 -0.354,4.265 -2.382,5.321c-2.007,1.045 -14.871,0.855 -16.166,0.835c-2.762,-0.041 -9.79,0.819 -11.544,-4.317c-0.495,-1.45 -0.185,-169.668 -0.143,-170.516c0.209,-4.197 0.266,-4.148 0.299,-8.392Zm30.988,93.782c0.375,-5.433 0.381,-26.558 20.181,-43.541c6.432,-5.517 18.54,-11.166 24.915,-12.018c12.381,-1.656 12.419,-1.512 24.788,0.091c5.025,0.651 16.293,5.234 21.341,9.019c22.169,16.622 23.843,38.652 23.839,50.583c-0.001,2.715 -0.006,18.744 -8.349,32.898c-12.926,21.93 -33.894,24.746 -38.659,26c-1.301,0.342 -4.831,1.271 -16.798,0.697c-2.289,-0.11 -17.287,-2.92 -24.706,-8.004c-14.568,-9.983 -16.133,-15.458 -19.766,-22.064c-4.439,-8.071 -3.958,-9.442 -5.285,-15.007c-1.781,-7.464 -1.675,-7.489 -1.501,-18.655Z" class="inqbeta-logo__wordmark" style="fill:#434343;fill-opacity:0.99;"/><path d="M980.303,181.173c-23.22,1.764 -122.934,-0.279 -129.215,1.281c-4.339,1.078 -3.32,5.637 0.015,14.394c1.488,3.906 4.687,8.366 5.173,9.044c0.994,1.386 22.708,36.107 73.964,22.349c6.457,-1.733 6.268,-2.192 14.514,-6.427c4.164,-2.138 11.122,-10.681 16.226,-7.504c1.179,0.734 6.316,6.855 6.837,7.476c2.605,3.103 6.331,6.423 5.719,10.415c-0.487,3.179 -6.556,7.344 -11.518,11.252c-6.066,4.778 -33.336,20.218 -71.433,14.107c-10.491,-1.683 -10.495,-1.65 -20.545,-5.162c-5.643,-1.972 -16.908,-8.444 -18.798,-9.942c-15.8,-12.522 -16.857,-15.822 -21.668,-22.221c-0.865,-1.15 -5.843,-9.14 -8.411,-16.876c-1.128,-3.398 -4.791,-12.228 -5.378,-29.406c-0.411,-12.01 1.278,-19.259 1.658,-20.892c2.012,-8.635 5.659,-27.246 22.522,-44.335c10.474,-10.614 14.536,-11.587 16.725,-12.854c1.381,-0.799 1.067,-1.579 9.101,-4.833c8.283,-3.355 15.664,-5.203 26.916,-6.674c1.758,-0.23 23.244,-1.522 37.677,3.701c2.102,0.761 16.272,5.889 24.625,13.202c8.617,7.544 9.009,8.041 9.659,8.864c1.438,1.821 1.326,1.857 2.809,3.605c8.179,9.636 15.309,24.307 17.633,39.228c0.327,2.102 3.563,22.874 0.563,26.583c-1.261,1.559 -1.617,0.952 -5.371,1.625Zm-75.121,-70.953c21.73,0.828 35.941,14.471 39.666,19.943c2.993,4.396 8.022,8.544 10.599,20.835c2.057,9.811 -6.038,8.134 -14.823,8.147c-80.521,0.119 -80.504,0.506 -87.482,-0.024c-2.21,-0.168 -4.371,-0.353 -5.126,-3.716c-0.971,-4.325 5.179,-19.625 11.76,-26.927c18.229,-20.227 41.793,-18.266 45.406,-18.258Z" class="inqbeta-logo__wordmark" style="fill:#434343;fill-opacity:1;"/><path d="M1264.667,248.965c-0.202,-7.24 0.534,-11.254 -3.229,-10.49c-1.006,0.204 -5.497,5.369 -6.372,6.16c-1.621,1.466 -8.754,6.449 -14.403,8.597c-15.338,5.832 -29.875,6.982 -47.992,4.341c-9.746,-1.421 -21.993,-5.953 -27.502,-10.026c-6.942,-5.132 -6.588,-5.524 -8.917,-8.051c-2.064,-2.241 -14.075,-15.276 -11.335,-36.357c1.412,-10.862 3.2,-12.75 3.247,-12.854c3.235,-7.211 3.053,-7.312 7.972,-13.515c2.799,-3.53 3.052,-3.252 6.799,-5.766c1.238,-0.831 2.989,-3.402 13.258,-7.098c12.84,-4.621 21.703,-4.823 31.06,-5.402c27.788,-1.719 46.811,0.56 52.094,-1.28c5.497,-1.915 2.241,-14.406 0.418,-20.887c-2.668,-9.484 -11.517,-17.053 -14.855,-18.817c-0.021,-0.011 -8.539,-5.613 -20.945,-6.26c-31.417,-1.637 -52.675,12.642 -56.416,14.45c-5.246,2.536 -7.153,0.189 -10.53,-5.763c-1.118,-1.97 -5.171,-8.57 -5.639,-10.664c-1.427,-6.383 5.66,-8.177 9.745,-10.883c19.35,-12.819 69.059,-21.969 100.521,-6.055c13.394,6.775 18.376,14.585 21.404,18.564c7.589,9.974 11.359,20.241 11.267,73.461c-0.115,66.447 0.005,66.504 -0.738,69.028c-1.304,4.427 -3.899,4.231 -19.62,3.944c-4.101,-0.075 -9.067,0.036 -9.413,-6.339c-0.037,-0.681 0.159,-1.361 0.122,-2.042Zm-57.339,-67.897c8.594,-0.263 8.574,-0.301 29.13,-0.308c21.868,-0.008 25.28,-1.032 26.244,5.761c0.067,0.469 0.223,12.534 0.059,14.473c-0.123,1.457 -0.713,8.439 -7.735,16.561c-2.917,3.374 -9.073,8.672 -10.782,9.564c-5.503,2.871 -28.937,15.141 -55.311,2.288c-13.809,-6.73 -18.183,-27.111 -6.834,-38.966c8.964,-9.364 23.333,-9.208 25.229,-9.372Z" class="inqbeta-logo__wordmark" style="fill:#434343;fill-opacity:1;"/><path d="M136.453,85.591c0.665,0.01 7.05,0.11 8.258,1.007c5.794,4.306 -0.276,20.649 4.174,21.021c2.842,0.238 1.856,-1.719 8.239,-6.801c1.182,-0.941 8.336,-6.464 12.617,-8.217c2.792,-1.144 5.542,-2.398 6.019,-2.615c0.26,-0.118 0.391,-0.438 0.651,-0.557c1.263,-0.575 16.415,-5.599 30.874,-5.738c36.979,-0.358 53.43,19.057 53.985,19.62c15.364,15.586 18.979,33.092 19.596,62.296c0.233,11.049 -0.038,83.006 -0.047,83.371c-0.065,2.884 0.059,7.29 -4.847,7.719c-12.202,1.068 -19.989,0.266 -20.737,0.216c-3.838,-0.255 -4.416,-0.244 -5.58,-3.928c-0.739,-2.337 -0.179,-68.341 -0.475,-79.034c-0.673,-24.376 -0.422,-40.977 -17.289,-53.599c-12.251,-9.167 -38.827,-12.884 -59.835,-0.258c-8.299,4.988 -13.5,12.195 -14.561,14.396c-8.316,17.253 -8.811,19.483 -8.879,68.634c-0.068,48.638 0.192,48.858 -1.614,52.205c-1.16,2.151 -7.759,1.845 -10.546,1.878c-8.306,0.097 -16.171,0.625 -17.994,-2.453c-0.804,-1.357 -1.2,-1.459 -1.114,-51.63c0.194,-112.782 0.215,-112.791 0.733,-114.435c1.142,-3.619 6.344,-3.022 18.369,-3.098Z" class="inqbeta-logo__wordmark" style="fill:#434343;fill-opacity:1;"/><path d="M1040.536,48.029c23.745,-1.946 23.53,1.799 23.975,2.36c4.011,5.05 -0.924,29.713 3.614,33.471c3.557,2.946 31.488,1.255 41.31,1.742c2.922,0.145 3.16,0.12 4.824,2.552c1.558,2.277 1.59,18.949 -0.717,21.221c-2.259,2.224 -5.016,1.551 -39.579,2.316c-4.896,0.108 -6.158,-0.611 -7.493,4.108c-0.489,1.73 -0.383,69.018 -0.304,72.73c0.126,5.916 -0.713,31.576 7.786,37.52c1.63,1.14 5.618,4.154 10.623,5.348c14.568,3.475 28.714,-4.266 29.162,-4.328c0.636,-0.087 3.286,0.691 3.866,1.174c0.454,0.378 1.154,0.96 3.651,6.417c3.174,6.937 6.873,13.698 -3.705,18.132c-15.482,6.49 -22.853,6.884 -39.521,5.27c-11.014,-1.066 -20.551,-6.714 -20.831,-6.842c-4.21,-1.932 -11.902,-9.219 -14.72,-14.62c-5.219,-10 -5.368,-10.01 -7.301,-21.129c-2.229,-12.826 0.174,-96.916 -1.776,-101.442c-2.127,-4.938 -17.935,-1.456 -24.399,-3.654c-3.539,-1.203 -3.877,-3.316 -3.889,-9.333c-0.01,-5.052 -0.542,-11.985 2.401,-14.244c3.145,-2.413 20.988,0.021 24.445,-2.842c2.655,-2.198 2.095,-8.56 2.394,-26.665c0.154,-9.295 2.797,-8.319 6.181,-9.262Z" class="inqbeta-logo__wordmark" style="fill:#434343;fill-opacity:1;"/><path d="M42.7,85.504c10.099,-0.469 15.109,-1.321 15.437,7.161c0.412,10.662 0.242,10.643 -0.173,133.38c-0.093,27.544 0.288,28.095 -2.109,30.033c-1.339,1.082 -2.048,1.656 -21.481,1.25c-6.609,-0.138 -6.843,-1.763 -7.018,-8.338c-0.141,-5.299 -0.271,-5.257 -0.527,-10.525c-0.207,-4.249 -0.161,-140.197 -0.075,-143.648c0.283,-11.312 4.644,-9.53 15.946,-9.314Z" class="inqbeta-logo__wordmark" style="fill:#434343;fill-opacity:1;"/><path d="M42.724,51.866c-3.981,-0.261 -5.205,0.224 -10.612,-2.577c-13.103,-6.786 -10.081,-22.198 -7.457,-27.074c6.876,-12.776 25.637,-13.096 34.518,-2.254c5.913,7.219 5.901,21.141 -4.386,28.37c-1.455,1.023 -5.363,2.479 -5.844,2.658c-2.617,0.975 -2.669,0.573 -6.219,0.876Z" class="inqbeta-logo__wordmark" style="fill:#434343;fill-opacity:1;"/></g></svg>